
<svg version="1.0" xmlns="http://www.w3.org/2000/svg"
 width="512.000000pt" height="512.000000pt" viewBox="0 0 512.000000 512.000000"
 preserveAspectRatio="xMidYMid meet">

<g transform="translate(0.000000,512.000000) scale(0.100000,-0.100000)"
 stroke="none">
<path d="M1855 4946 c-37 -17 -70 -52 -84 -89 -7 -17 -11 -127 -11 -282 l0
-255 -589 -2 c-578 -3 -590 -3 -617 -24 -53 -39 -69 -71 -69 -134 0 -63 16
-95 69 -134 l27 -21 1979 0 1979 0 27 21 c53 39 69 71 69 134 0 63 -16 95 -69
134 -27 21 -39 21 -616 24 l-589 2 -3 270 c-3 253 -4 270 -24 296 -11 15 -33
37 -48 48 -27 21 -38 21 -714 23 -557 2 -693 0 -717 -11z m1185 -466 l0 -160
-480 0 -480 0 0 160 0 160 480 0 480 0 0 -160z"/>
<path d="M735 3666 c-41 -18 -83 -69 -91 -111 -10 -53 399 -2760 431 -2855 69
-202 215 -367 409 -460 165 -79 106 -75 1076 -75 977 0 912 -5 1085 80 207
102 354 282 414 505 31 117 424 2764 417 2805 -8 43 -50 94 -93 111 -48 20
-3603 20 -3648 0z m3395 -320 c0 -29 -371 -2482 -381 -2520 -42 -155 -180
-288 -344 -331 -87 -22 -1601 -23 -1688 0 -165 43 -305 177 -346 331 -10 39
-381 2491 -381 2520 0 12 252 14 1570 14 1318 0 1570 -2 1570 -14z"/>
<path d="M1695 2711 c-34 -14 -74 -62 -86 -102 -17 -56 142 -1332 174 -1399
58 -119 224 -115 283 7 18 38 18 38 -67 721 -93 744 -86 710 -159 760 -34 23
-104 29 -145 13z"/>
<path d="M2495 2706 c-41 -18 -83 -69 -90 -109 -3 -18 -5 -334 -3 -704 3 -660
3 -672 24 -699 39 -53 71 -69 134 -69 63 0 95 16 134 69 21 27 21 36 21 726 0
690 0 699 -21 726 -11 15 -32 37 -46 47 -33 25 -113 32 -153 13z"/>
<path d="M3318 2710 c-45 -14 -84 -47 -101 -87 -21 -49 -181 -1331 -172 -1380
9 -47 71 -109 118 -118 59 -11 104 2 146 44 21 21 41 49 44 62 3 13 42 320 88
682 81 654 81 658 64 703 -27 72 -116 117 -187 94z"/>
</g>
</svg>
